<svg width="12" height="8" viewBox="0 0 12 8" fill="none" xmlns="http://www.w3.org/2000/svg">
<path d="M6.09432 0.393275C5.93832 0.477434 5.84107 0.637463 5.84107 0.811519V3.52182H0.489529C0.219309 3.52182 0 3.73604 0 3.99999C0 4.26395 0.219309 4.47817 0.489529 4.47817H5.84107V7.18847C5.84107 7.36316 5.93832 7.52319 6.09432 7.60671C6.25031 7.69151 6.4409 7.68577 6.59168 7.59332L11.7716 4.40485C11.9138 4.31686 12 4.16449 12 3.99999C12 3.8355 11.9138 3.68312 11.7716 3.59514L6.59168 0.406664C6.51205 0.358209 6.42132 0.333344 6.3306 0.333344C6.24966 0.333344 6.16807 0.353746 6.09432 0.393275Z" fill="#0F97B5"/>
</svg>
