<svg width="60" height="60" viewBox="0 0 60 60" fill="none" xmlns="http://www.w3.org/2000/svg">
<path opacity="0.4" d="M30.0005 55.0005C16.213 55.0005 5.00048 43.7855 5.00048 30.0005C5.00048 16.2155 16.213 5.00049 30.0005 5.00049C43.7855 5.00049 55.0005 16.2155 55.0005 30.0005C55.0005 43.7855 43.7855 55.0005 30.0005 55.0005Z" fill="#062126" fill-opacity="0.1"/>
<path d="M33.6065 40.5522C33.129 40.5522 32.649 40.3697 32.284 40.0047L23.5665 31.3297C23.214 30.9772 23.0165 30.4997 23.0165 29.9997C23.0165 29.5022 23.214 29.0247 23.5665 28.6722L32.284 19.9922C33.0165 19.2622 34.2015 19.2622 34.934 19.9972C35.664 20.7322 35.6615 21.9197 34.929 22.6497L27.5465 29.9997L34.929 37.3497C35.6615 38.0797 35.664 39.2647 34.934 39.9997C34.569 40.3697 34.0865 40.5522 33.6065 40.5522Z" fill="#062126" fill-opacity="0.1"/>
</svg>
