<svg width="60" height="60" viewBox="0 0 60 60" fill="none" xmlns="http://www.w3.org/2000/svg">
<path opacity="0.4" d="M29.9995 4.99951C43.787 4.99951 54.9995 16.2145 54.9995 29.9995C54.9995 43.7845 43.787 54.9995 29.9995 54.9995C16.2145 54.9995 4.99951 43.7845 4.99951 29.9995C4.99951 16.2145 16.2145 4.99951 29.9995 4.99951Z" fill="#24BEE0"/>
<path d="M26.3935 19.4478C26.871 19.4478 27.351 19.6303 27.716 19.9953L36.4335 28.6703C36.786 29.0228 36.9835 29.5003 36.9835 30.0003C36.9835 30.4978 36.786 30.9753 36.4335 31.3278L27.716 40.0078C26.9835 40.7378 25.7985 40.7378 25.066 40.0028C24.336 39.2678 24.3385 38.0803 25.071 37.3503L32.4535 30.0003L25.071 22.6503C24.3385 21.9203 24.336 20.7353 25.066 20.0003C25.431 19.6303 25.9135 19.4478 26.3935 19.4478Z" fill="#24BEE0"/>
</svg>
