<svg width="20" height="21" viewBox="0 0 20 21" fill="none" xmlns="http://www.w3.org/2000/svg">
<path opacity="0.4" d="M13.1646 9.50807L16.2473 9.23544C16.9391 9.23544 17.5 9.80181 17.5 10.5004C17.5 11.1989 16.9391 11.7653 16.2473 11.7653L13.1646 11.4926C12.6219 11.4926 12.1819 11.0484 12.1819 10.5004C12.1819 9.95143 12.6219 9.50807 13.1646 9.50807Z" fill="white"/>
<path d="M2.81272 9.5582C2.8609 9.50955 3.0409 9.30393 3.20999 9.13319C4.19634 8.0638 6.77177 6.31513 8.11902 5.77997C8.32357 5.6946 8.84083 5.51285 9.1181 5.5C9.38264 5.5 9.63537 5.5615 9.87627 5.68267C10.1772 5.85249 10.4172 6.12053 10.5499 6.4363C10.6344 6.65476 10.7672 7.31109 10.7672 7.32302C10.899 8.03993 10.9708 9.20571 10.9708 10.4945C10.9708 11.7209 10.899 12.8389 10.7908 13.5677C10.779 13.5806 10.6463 14.3948 10.5017 14.6739C10.2372 15.1842 9.71991 15.5 9.16628 15.5H9.1181C8.7572 15.4881 7.99902 15.1714 7.99902 15.1604C6.72358 14.6252 4.20907 12.961 3.19817 11.8549C3.19817 11.8549 2.91272 11.5703 2.78909 11.3932C2.59636 11.138 2.5 10.8222 2.5 10.5064C2.5 10.1539 2.60818 9.82623 2.81272 9.5582Z" fill="white"/>
</svg>
