<svg width="54" height="34" viewBox="0 0 54 34" fill="none" xmlns="http://www.w3.org/2000/svg">
<path d="M10.8999 33.6667C12.5999 33.6667 14.1666 32.7 14.8999 31.2L19.6332 21.7334C20.0999 20.8 20.3333 19.8 20.3333 18.7667V3.66671C20.3333 1.83337 18.8333 0.333374 16.9999 0.333374H3.66658C1.83325 0.333374 0.333252 1.83337 0.333252 3.66671V17C0.333252 18.8334 1.83325 20.3334 3.66658 20.3334H10.3333L6.89992 27.2C5.39992 30.1667 7.56659 33.6667 10.8999 33.6667ZM44.2332 33.6667C45.9332 33.6667 47.4999 32.7 48.2332 31.2L52.9666 21.7334C53.4333 20.8 53.6666 19.8 53.6666 18.7667V3.66671C53.6666 1.83337 52.1666 0.333374 50.3332 0.333374H36.9999C35.1666 0.333374 33.6666 1.83337 33.6666 3.66671V17C33.6666 18.8334 35.1666 20.3334 36.9999 20.3334H43.6666L40.2332 27.2C38.7332 30.1667 40.8999 33.6667 44.2332 33.6667Z" fill="#12CCF4" fill-opacity="0.3"/>
</svg>
