<svg width="100" height="100" viewBox="0 0 100 100" fill="none" xmlns="http://www.w3.org/2000/svg">
<rect width="100" height="100" rx="50" fill="#24BEE0" fill-opacity="0.1"/>
<path d="M56.248 65.0781C55.8168 65.0781 55.4668 65.4281 55.4668 65.8594C55.4668 66.2906 55.8168 66.6406 56.248 66.6406C56.6793 66.6406 57.0293 66.2906 57.0293 65.8594C57.0293 65.4281 56.6793 65.0781 56.248 65.0781Z" fill="#24BEE0"/>
<path d="M43.748 33.3594C43.3168 33.3594 42.9668 33.7094 42.9668 34.1406C42.9668 34.5719 43.3168 34.9219 43.748 34.9219C44.1793 34.9219 44.5293 34.5719 44.5293 34.1406C44.5293 33.7094 44.1793 33.3594 43.748 33.3594Z" fill="#24BEE0"/>
<path d="M64.8857 69.0923C64.4058 66.1809 63.7875 63.6561 62.7444 60.849C60.9043 55.8973 58.4415 52.2559 55.4142 50.0045C60.8684 45.9598 63.8074 37.6051 64.8179 30.8962C64.8887 30.4255 64.5167 30.0066 64.0459 30.0063C62.9558 30.0055 61.783 30.004 60.8857 30.0016C60.885 30.0016 60.8843 30.0016 60.8837 30.0016C60.5017 30.0016 60.1757 30.2699 60.113 30.6468C60.0373 31.1019 59.8591 32.0847 59.5472 33.3594H46.6265C46.1951 33.3594 45.8453 33.7092 45.8453 34.1406C45.8453 34.572 46.1951 34.9141 46.6265 34.9141H59.1329C58.8344 35.9582 58.4608 37.1141 58.0013 38.2812H41.9565C40.595 34.855 39.9793 31.6017 39.8179 30.6505C39.7541 30.2749 39.4287 30 39.0476 30H35.8859C35.4094 30 35.0442 30.4234 35.1128 30.8939C36.054 37.3584 39.1654 45.9337 44.5883 49.9912C39.1 54.057 36.2422 62.3212 35.1796 69.1094C35.1129 69.5809 35.4797 70 35.9531 70H39.1133C39.4951 70 39.821 69.724 39.8838 69.3473C39.9597 68.8927 40.138 67.912 40.4493 66.6406H53.3703C53.8017 66.6406 54.1515 66.2908 54.1515 65.8594C54.1515 65.428 53.8017 65.0781 53.3703 65.0781H40.8636C41.1622 64.0337 41.5358 62.8854 41.9951 61.7188H58.0712C59.0343 64.1238 59.7215 66.5613 60.1511 69.1807C60.1625 69.2506 60.1722 69.3102 60.1805 69.3584C60.244 69.7345 60.5697 69.9859 60.9507 69.9859C60.952 69.9859 60.9533 69.9859 60.9546 69.9859C61.9233 69.9812 63.159 69.9867 64.1162 69.9852C64.5962 69.9844 64.9644 69.5691 64.8857 69.0923ZM61.5375 31.5577C62.0361 31.5587 62.5822 31.5595 63.1323 31.5601C62.0751 37.69 59.1959 45.5977 54.0113 49.0842C53.4638 48.771 52.8991 48.4999 52.3204 48.2722C57.631 45.3258 60.4133 37.5063 61.5375 31.5577ZM49.9958 47.575C48.3895 47.0867 46.9047 46.0655 45.5659 44.5312H54.4128C53.0797 46.0636 51.5991 47.0847 49.9958 47.575ZM57.3355 39.8359C56.8015 40.9937 56.2212 42.0478 55.6026 42.9688H44.3717C43.7497 42.0476 43.1659 40.9935 42.6279 39.8359H57.3355ZM38.4587 68.4375H36.8651C37.9222 62.3096 40.8014 54.3998 45.9884 50.9138C46.5351 51.2276 47.0993 51.4992 47.6777 51.7273C42.3651 54.6737 39.5683 62.5256 38.4587 68.4375ZM50.0016 52.4252C51.6112 52.9139 53.1006 53.9348 54.4448 55.4688H45.5843C46.9174 53.9365 48.3981 52.9155 50.0016 52.4252ZM42.6611 60.1562C43.1955 58.9981 43.7759 57.9519 44.3944 57.0312H55.6442C56.268 57.9511 56.8546 58.9974 57.3958 60.1562H42.6611ZM61.6122 68.4442C60.4399 61.628 56.7444 52.3676 49.8247 50.762C42.1454 48.9999 38.1956 39.2892 36.8023 31.5625H38.3957C39.7069 38.3808 43.1177 47.3145 49.7897 49.1418C49.7954 49.1434 49.8012 49.1448 49.8068 49.1463C50.3865 49.3054 51.8078 49.5396 53.6212 50.6709C57.5733 53.1345 59.9673 57.8616 61.2797 61.3933C62.4127 64.442 62.9784 67.2037 63.1969 68.44C62.6752 68.4411 62.1263 68.4423 61.6122 68.4442Z" fill="#24BEE0"/>
</svg>
