<svg width="16" height="11" viewBox="0 0 16 11" fill="none" xmlns="http://www.w3.org/2000/svg">
<path d="M8.11789 0.991601C7.9229 1.0968 7.80133 1.29684 7.80133 1.51441V4.90228H1.11191C0.774137 4.90228 0.5 5.17006 0.5 5.5C0.5 5.82994 0.774137 6.09772 1.11191 6.09772H7.80133V9.48559C7.80133 9.70396 7.9229 9.904 8.11789 10.0084C8.31289 10.1144 8.55113 10.1072 8.7396 9.99166L15.2144 6.00607C15.3923 5.89609 15.5 5.70561 15.5 5.5C15.5 5.29438 15.3923 5.10391 15.2144 4.99393L8.7396 1.00834C8.64006 0.947768 8.52665 0.916687 8.41324 0.916687C8.31208 0.916687 8.21009 0.94219 8.11789 0.991601Z" fill="#CF7D4E"/>
</svg>
