<svg width="100" height="100" viewBox="0 0 100 100" fill="none" xmlns="http://www.w3.org/2000/svg">
<rect width="100" height="100" rx="50" fill="#24BEE0" fill-opacity="0.1"/>
<g clip-path="url(#clip0)">
<path d="M60.8865 39.1135C60.5811 38.808 60.0865 38.808 59.7818 39.1135C59.4764 39.419 59.4764 39.9135 59.7818 40.2182C60.0865 40.5236 60.5811 40.5236 60.8865 40.2182C61.192 39.9135 61.192 39.419 60.8865 39.1135Z" fill="#24BEE0"/>
<path d="M40.2181 59.7818C39.9134 59.4764 39.4181 59.4764 39.1134 59.7818C38.8079 60.0865 38.8079 60.5818 39.1134 60.8865C39.4181 61.1919 39.9134 61.1919 40.2181 60.8865C40.5235 60.5818 40.5235 60.0865 40.2181 59.7818Z" fill="#24BEE0"/>
<path d="M68.8541 42.1942L57.806 31.1462C56.2795 29.6187 53.8089 29.6185 52.2815 31.146L31.145 52.2824C29.6183 53.8092 29.6171 56.2797 31.145 57.8066L42.1931 68.8546C42.1931 68.8546 42.1931 68.8546 42.1933 68.8548C43.7196 70.3821 46.1901 70.3823 47.7176 68.8548L68.854 47.7185C70.3807 46.1917 70.382 43.7211 68.8541 42.1942ZM67.7492 46.6136L46.6128 67.7501C45.6967 68.6662 44.2148 68.6673 43.2984 67.7503C43.2984 67.7502 43.2983 67.7501 43.2982 67.7501L32.2498 56.7016C31.3334 55.7859 31.3331 54.3038 32.2499 53.3873L53.3862 32.2508C54.3026 31.3344 55.7844 31.3337 56.7008 32.2508L67.7492 43.2993C68.6658 44.215 68.666 45.6971 67.7492 46.6136Z" fill="#24BEE0"/>
<path d="M64.7538 42.9803C63.5352 41.762 61.5527 41.7619 60.3344 42.9802C59.1129 44.2007 59.1121 46.1782 60.3342 47.3992C61.5558 48.621 63.5322 48.621 64.7538 47.3992V47.3992C65.9747 46.1784 65.9748 44.2014 64.7538 42.9803ZM63.649 46.2944C63.0382 46.9053 62.0504 46.9058 61.4388 46.2942C60.8283 45.6842 60.8279 44.6959 61.439 44.0853C62.0484 43.4759 63.0397 43.476 63.649 44.0853C64.2592 44.6954 64.2592 45.6842 63.649 46.2944Z" fill="#24BEE0"/>
<path d="M58.9955 48.7389C57.7769 47.5205 55.7944 47.5204 54.5762 48.7387C53.3544 49.9594 53.3539 51.9365 54.5762 53.1588C55.7945 54.3762 57.7769 54.3762 58.9953 53.1588C58.9955 53.1587 58.9956 53.1585 58.9958 53.1583C60.2136 51.9393 60.2135 49.9569 58.9955 48.7389ZM57.8907 52.0537C57.2812 52.6626 56.2898 52.6624 55.6808 52.0537C55.0701 51.4431 55.0694 50.4545 55.6808 49.8437C56.2901 49.2344 57.2814 49.2344 57.8907 49.8437C58.4996 50.4526 58.4996 51.444 57.8907 52.0537Z" fill="#24BEE0"/>
<path d="M53.1586 54.5756C51.9375 53.3546 49.9603 53.3534 48.739 54.5756C47.5206 55.7942 47.5206 57.7768 48.739 58.9953C49.9572 60.2134 51.9396 60.2132 53.1584 58.9955C53.1585 58.9954 53.1587 58.9952 53.1589 58.995C54.3761 57.7766 54.3761 55.7942 53.1586 54.5756ZM52.0536 57.8907C51.4439 58.4993 50.4528 58.4994 49.8439 57.8904C49.2346 57.2811 49.2346 56.2897 49.8442 55.6802C50.4533 55.0705 51.4419 55.0685 52.0536 55.6801C52.6625 56.2897 52.6625 57.2813 52.0536 57.8907Z" fill="#24BEE0"/>
<path d="M47.3994 60.3343C46.1787 59.1127 44.2013 59.1121 42.9802 60.3341C41.7618 61.5527 41.7618 63.5353 42.9802 64.7538C44.1985 65.972 46.1807 65.9721 47.3991 64.7538C47.3991 64.7538 47.3991 64.7538 47.3991 64.7537C48.6176 63.5352 48.6176 61.5526 47.3994 60.3343ZM46.2943 63.6489C45.6852 64.2579 44.6942 64.2579 44.0852 63.6489C43.4759 63.0396 43.4759 62.0482 44.0854 61.4386C44.6955 60.828 45.6837 60.8278 46.2943 61.4388C46.9036 62.0482 46.9036 63.0397 46.2943 63.6489Z" fill="#24BEE0"/>
<path d="M57.0193 35.2461C55.8009 34.0279 53.8187 34.0277 52.6004 35.2462C51.3819 36.4647 51.3819 38.4473 52.6001 39.6656C53.8212 40.8875 55.7985 40.8875 57.0195 39.6656C58.2377 38.4471 58.2376 36.4646 57.0193 35.2461ZM55.9144 38.561C55.9143 38.5611 55.9142 38.5612 55.9141 38.5613C55.304 39.1719 54.3158 39.1721 53.7052 38.5611C53.0959 37.9517 53.0959 36.9603 53.7052 36.351C54.3144 35.7419 55.3052 35.7419 55.9144 36.351C56.5237 36.9603 56.5237 37.9517 55.9144 38.561Z" fill="#24BEE0"/>
<path d="M51.261 41.0047C50.0429 39.7868 48.0604 39.7866 46.8411 41.0051C45.6239 42.2234 45.6239 44.2058 46.8414 45.4244C48.0629 46.6458 50.04 46.6464 51.2612 45.4242C52.4794 44.2057 52.4793 42.2232 51.261 41.0047ZM50.1561 44.3196C50.1561 44.3197 50.156 44.3197 50.1559 44.3198C49.5468 44.9294 48.5582 44.9315 47.9465 44.3199C47.3375 43.7104 47.3375 42.7188 47.9459 42.1098C48.555 41.5012 49.5467 41.5 50.1561 42.1096C50.7654 42.7189 50.7654 43.7103 50.1561 44.3196Z" fill="#24BEE0"/>
<path d="M45.4242 46.841C44.2058 45.6237 42.2234 45.6236 41.0046 46.8416C39.7868 48.0605 39.7869 50.043 41.0048 51.2609C42.2232 52.4791 44.2056 52.4796 45.4242 51.2612C46.6459 50.0405 46.6465 48.0633 45.4242 46.841ZM44.3199 50.1558C44.3198 50.1559 44.3198 50.156 44.3197 50.1561C43.7104 50.7654 42.7191 50.7654 42.1098 50.1561C41.5006 49.5472 41.5008 48.5555 42.1095 47.9463C42.7185 47.3377 43.7103 47.3371 44.3197 47.9461C44.9301 48.5564 44.9312 49.5451 44.3199 50.1558Z" fill="#24BEE0"/>
<path d="M39.6659 52.6008C38.4442 51.3789 36.468 51.3788 35.2463 52.6006C34.0254 53.8215 34.0253 55.7984 35.2463 57.0195C36.4646 58.2377 38.447 58.2382 39.6656 57.0198C40.8871 55.7994 40.888 53.8217 39.6659 52.6008ZM38.5613 55.9144C38.5612 55.9145 38.5611 55.9146 38.561 55.9147C37.9517 56.524 36.9603 56.524 36.351 55.9147C35.7409 55.3046 35.7407 54.3158 36.351 53.7055C36.9619 53.0946 37.9497 53.0941 38.5613 53.7058C39.1719 54.3159 39.1719 55.3042 38.5613 55.9144Z" fill="#24BEE0"/>
<path d="M58.6763 41.3234C58.3713 41.0186 57.8765 41.0184 57.5715 41.3234L41.3226 57.5716C41.0175 57.8767 41.0174 58.3714 41.3226 58.6765C41.6277 58.9816 42.1224 58.9816 42.4274 58.6765L58.6763 42.4283C58.9814 42.1233 58.9815 41.6286 58.6763 41.3234Z" fill="#24BEE0"/>
</g>
<defs>
<clipPath id="clip0">
<rect width="40" height="40" fill="white" transform="translate(30 30)"/>
</clipPath>
</defs>
</svg>
