<svg width="18" height="17" viewBox="0 0 18 17" fill="none" xmlns="http://www.w3.org/2000/svg">
<path d="M16.8627 0.651734C16.4458 0.223913 15.8289 0.064529 15.2537 0.232302L1.83983 4.13302C1.23292 4.30163 0.802743 4.78565 0.686862 5.40054C0.568481 6.02633 0.981983 6.82074 1.5222 7.15293L5.71642 9.73076C6.1466 9.995 6.70183 9.92873 7.0578 9.56969L11.8606 4.737C12.1024 4.48534 12.5025 4.48534 12.7443 4.737C12.9861 4.98027 12.9861 5.37454 12.7443 5.6262L7.93316 10.4597C7.57635 10.8179 7.50966 11.3758 7.77226 11.8086L10.335 16.0449C10.6351 16.5482 11.152 16.8334 11.7189 16.8334C11.7856 16.8334 11.8606 16.8334 11.9273 16.825C12.5776 16.7411 13.0944 16.2965 13.2862 15.6674L17.2628 2.27074C17.4379 1.70031 17.2795 1.07955 16.8627 0.651734Z" fill="white"/>
</svg>
