<svg width="100" height="100" viewBox="0 0 100 100" fill="none" xmlns="http://www.w3.org/2000/svg">
<rect width="100" height="100" rx="50" fill="#24BEE0" fill-opacity="0.1"/>
<path d="M38.2813 44.5311C37.85 44.5311 37.5 44.8811 37.5 45.3124C37.5 45.7436 37.85 46.0936 38.2813 46.0936C38.7125 46.0936 39.0625 45.7436 39.0625 45.3124C39.0625 44.8811 38.7125 44.5311 38.2813 44.5311Z" fill="#24BEE0"/>
<path d="M57.0313 46.0936H53.125V42.1874C53.125 41.756 52.7752 41.4061 52.3438 41.4061H47.6563C47.2249 41.4061 46.875 41.756 46.875 42.1874V46.0936H42.9688C42.5373 46.0936 42.1875 46.4435 42.1875 46.8749V51.5624C42.1875 51.9938 42.5373 52.3437 42.9688 52.3437H46.875V56.2499C46.875 56.6813 47.2249 57.0312 47.6563 57.0312H52.3438C52.7752 57.0312 53.125 56.6813 53.125 56.2499V52.3437H57.0313C57.4627 52.3437 57.8126 51.9938 57.8126 51.5624V46.8749C57.8126 46.4435 57.4627 46.0936 57.0313 46.0936ZM56.2501 50.7812H52.3438C51.9124 50.7812 51.5625 51.131 51.5625 51.5624V55.4687H48.4375V51.5624C48.4375 51.131 48.0877 50.7812 47.6563 50.7812H43.75V47.6562H47.6563C48.0877 47.6562 48.4375 47.3063 48.4375 46.8749V42.9686H51.5625V46.8749C51.5625 47.3063 51.9124 47.6562 52.3438 47.6562H56.2501V50.7812Z" fill="#24BEE0"/>
<path d="M62.0607 32.4016C60.7958 33.2229 59.3268 33.6569 57.8126 33.6569C55.4968 33.6569 53.3139 32.6379 51.8237 30.8611C51.8236 30.8611 51.8236 30.8611 51.8236 30.8611C51.3646 30.3139 50.6999 30 50.0001 30C49.3002 30 48.6355 30.3139 48.1765 30.861C46.6862 32.6378 44.5032 33.6568 42.1875 33.6568C40.6733 33.6568 39.2043 33.2227 37.9395 32.4016C36.3947 31.399 34.375 32.5794 34.375 34.399V50.3343C34.375 53.8789 35.512 57.3421 37.5764 60.0859C42.6835 66.8765 49.4083 69.8148 49.692 69.9366C49.7904 69.9788 49.8953 70 50.0001 70C50.1048 70 50.2098 69.9788 50.3081 69.9366C50.5919 69.8148 57.3167 66.8766 62.4236 60.0868C64.4882 57.3421 65.6251 53.8786 65.6251 50.3343V34.3991C65.6251 32.5793 63.605 31.399 62.0607 32.4016ZM61.175 59.1475C56.9279 64.794 51.3574 67.7049 49.9996 68.358C48.6412 67.7065 43.0815 64.8064 38.8251 59.1467C36.963 56.6719 35.9375 53.5424 35.9375 50.3344V34.3991C35.9375 33.8043 36.5938 33.3911 37.0886 33.7122C38.6074 34.6982 40.3706 35.2194 42.1875 35.2194C44.9664 35.2194 47.5858 33.9969 49.3736 31.8652C49.5373 31.67 49.7597 31.5625 50.0001 31.5625C50.2404 31.5625 50.4628 31.67 50.6265 31.8652C52.4144 33.9968 55.0337 35.2194 57.8126 35.2194C59.6295 35.2194 61.3926 34.6982 62.9115 33.7122C63.3982 33.396 64.0626 33.7953 64.0626 34.3991V50.3343C64.0626 53.542 63.0371 56.6719 61.175 59.1475Z" fill="#24BEE0"/>
<path d="M62.1695 36.2517C61.9622 36.1053 61.6968 36.0687 61.4576 36.1535C60.2822 36.5705 59.0558 36.7819 57.8126 36.7819C55.1272 36.7819 52.5374 35.7906 50.5202 33.9905C50.2239 33.7261 49.7762 33.7261 49.4799 33.9905C47.4628 35.7906 44.8729 36.7819 42.1875 36.7819C40.9443 36.7819 39.7179 36.5705 38.5425 36.1535C38.3031 36.0687 38.0379 36.1053 37.8305 36.2517C37.6234 36.3981 37.5001 36.6361 37.5001 36.8898V42.1875C37.5001 42.6189 37.8499 42.9688 38.2813 42.9688C38.7127 42.9688 39.0626 42.6189 39.0626 42.1875V37.9458C40.0827 38.2107 41.1298 38.3445 42.1876 38.3445C45.031 38.3445 47.7794 37.3732 50.0001 35.596C52.2208 37.3732 54.9693 38.3445 57.8127 38.3445C58.8705 38.3445 59.9175 38.2107 60.9377 37.9458V50.3344C60.9377 52.8696 60.1351 55.3316 58.6772 57.2672C55.723 61.1966 52.1149 63.6297 50.0075 64.8276C47.8834 63.614 44.2521 61.1625 41.3227 57.2685C39.8652 55.3317 39.0625 52.8691 39.0625 50.3343V48.4374C39.0625 48.006 38.7127 47.6562 38.2813 47.6562C37.8498 47.6562 37.5 48.006 37.5 48.4374V50.3343C37.5 53.2059 38.4142 56.0022 40.0742 58.2079C43.3594 62.5752 47.4711 65.2196 49.6297 66.4072C49.7469 66.4717 49.8765 66.5039 50.0062 66.5039C50.1351 66.5039 50.2642 66.472 50.3809 66.4082C52.5228 65.2376 56.611 62.6154 59.9256 58.2067C61.5857 56.0023 62.5 53.2066 62.5 50.3343V36.8897C62.5 36.636 62.3767 36.3981 62.1695 36.2517Z" fill="#24BEE0"/>
</svg>
