<svg width="30" height="30" viewBox="0 0 30 30" fill="none" xmlns="http://www.w3.org/2000/svg">
<path d="M11.6867 18.5721C6.73191 18.5721 2.5 19.3375 2.5 22.3967C2.5 25.4582 6.705 26.25 11.6867 26.25C16.6414 26.25 20.8733 25.4846 20.8733 22.4254C20.8733 19.3639 16.6683 18.5721 11.6867 18.5721Z" fill="#CF7D4E"/>
<path opacity="0.4" d="M11.6867 15.656C15.0612 15.656 17.7655 13.0077 17.7655 9.70301C17.7655 6.39831 15.0612 3.75 11.6867 3.75C8.3134 3.75 5.60791 6.39831 5.60791 9.70301C5.60791 13.0077 8.3134 15.656 11.6867 15.656Z" fill="#CF7D4E"/>
<path opacity="0.4" d="M20.217 9.81091C20.217 11.4938 19.7008 13.0641 18.7957 14.3685C18.7016 14.5027 18.7847 14.6835 18.9486 14.7123C19.1761 14.7494 19.4097 14.7722 19.6482 14.7769C22.021 14.838 24.1504 13.342 24.7388 11.089C25.6108 7.74592 23.0521 4.74426 19.7926 4.74426C19.4391 4.74426 19.1003 4.7802 18.77 4.84607C18.7248 4.85566 18.6759 4.87722 18.6514 4.91555C18.6196 4.96466 18.6428 5.02814 18.6746 5.07006C19.6543 6.41518 20.217 8.05256 20.217 9.81091Z" fill="#CF7D4E"/>
<path d="M27.2241 18.9617C26.7899 18.055 25.7417 17.4333 24.1467 17.1279C23.3945 16.9482 21.3569 16.6931 19.4623 16.729C19.4342 16.7326 19.4183 16.7518 19.4158 16.7637C19.4121 16.7829 19.4207 16.8117 19.4574 16.832C20.3331 17.256 23.7174 19.1006 23.2918 22.991C23.2735 23.1611 23.4117 23.3049 23.5841 23.2809C24.4171 23.1647 26.5599 22.7132 27.2241 21.3094C27.5922 20.5667 27.5922 19.7043 27.2241 18.9617Z" fill="#CF7D4E"/>
</svg>
